<?xml version="1.0" encoding="utf-8"?>
<!-- Generator: Adobe Illustrator 23.1.0, SVG Export Plug-In . SVG Version: 6.00 Build 0)  -->
<svg version="1.1" id="Слой_1" xmlns="http://www.w3.org/2000/svg" xmlns:xlink="http://www.w3.org/1999/xlink" x="0px" y="0px"
	 viewBox="0 0 20 20" style="enable-background:new 0 0 20 20;" xml:space="preserve">
<style type="text/css">
	.st0{fill:none;stroke:#FFFFFF;stroke-width:2;stroke-linecap:round;stroke-linejoin:round;}
</style>
<path class="st0" d="M7.5,18.2c0.5,0,0.8-0.4,0.8-0.8c0-0.5-0.4-0.8-0.8-0.8c-0.5,0-0.8,0.4-0.8,0.8C6.7,17.8,7.1,18.2,7.5,18.2z"/>
<path class="st0" d="M16.5,18.2c0.5,0,0.8-0.4,0.8-0.8c0-0.5-0.4-0.8-0.8-0.8c-0.5,0-0.8,0.4-0.8,0.8C15.7,17.8,16.1,18.2,16.5,18.2
	z"/>
<path class="st0" d="M1,1h3.3l2.2,11c0.1,0.4,0.3,0.7,0.6,1c0.3,0.2,0.7,0.4,1.1,0.4h8c0.4,0,0.8-0.1,1.1-0.4c0.3-0.2,0.5-0.6,0.6-1
	L19,5.1H5.1"/>
</svg>
