<?xml version="1.0" encoding="utf-8"?>
<!-- Generator: Adobe Illustrator 23.1.0, SVG Export Plug-In . SVG Version: 6.00 Build 0)  -->
<svg version="1.1" id="Слой_1" xmlns="http://www.w3.org/2000/svg" xmlns:xlink="http://www.w3.org/1999/xlink" x="0px" y="0px"
	 viewBox="0 0 21 19" style="enable-background:new 0 0 21 19;" xml:space="preserve">
<style type="text/css">
	.st0{fill:#FFFFFF;}
</style>
<path class="st0" d="M15.1,0c1.6,0,3,0.5,4.1,1.6c1.1,1.1,1.7,2.4,1.7,4c0,0.8-0.2,1.6-0.5,2.4c-0.3,0.8-0.7,1.5-1.1,2.1
	c-0.4,0.6-1.1,1.4-2,2.4c-0.9,1-1.7,1.8-2.3,2.4c-0.6,0.6-1.7,1.5-3.1,2.7L10.4,19l-1.5-1.3c-1.4-1.3-2.4-2.2-3-2.8
	c-0.7-0.6-1.4-1.4-2.4-2.4c-0.9-1-1.6-1.8-2-2.4C1.1,9.5,0.8,8.8,0.5,8C0.2,7.2,0,6.4,0,5.7c0-1.6,0.6-2.9,1.7-4S4.1,0,5.7,0
	c1.9,0,3.5,0.7,4.7,2.2C11.6,0.7,13.2,0,15.1,0z M10.5,16.1c1.6-1.4,2.8-2.5,3.5-3.2c0.7-0.7,1.5-1.5,2.4-2.5c0.9-1,1.5-1.8,1.8-2.5
	s0.5-1.5,0.5-2.2c0-1-0.4-1.9-1.1-2.6c-0.7-0.7-1.6-1-2.6-1c-0.8,0-1.5,0.2-2.2,0.7c-0.7,0.5-1.2,1-1.5,1.7h-2
	C9.2,3.8,8.7,3.2,8,2.8C7.3,2.3,6.5,2.1,5.7,2.1c-1,0-1.9,0.3-2.6,1c-0.7,0.7-1,1.5-1,2.6c0,0.7,0.2,1.5,0.5,2.2s0.9,1.6,1.8,2.5
	c0.9,1,1.7,1.8,2.4,2.5c0.7,0.7,1.9,1.8,3.4,3.2H10.5L10.5,16.1z"/>
</svg>
