<?xml version="1.0" standalone="no"?>
<!DOCTYPE svg PUBLIC "-//W3C//DTD SVG 20010904//EN"
 "http://www.w3.org/TR/2001/REC-SVG-20010904/DTD/svg10.dtd">
<svg version="1.0" xmlns="http://www.w3.org/2000/svg"
 width="344.000000pt" height="344.000000pt" viewBox="0 0 344.000000 344.000000"
 preserveAspectRatio="xMidYMid meet">
<metadata>
Created by potrace 1.11, written by Peter Selinger 2001-2013
</metadata>
<g transform="translate(0.000000,344.000000) scale(0.100000,-0.100000)"
fill="#000000" stroke="none">
<path d="M860 2630 l0 -160 160 0 160 0 0 55 0 55 -55 0 -55 0 0 55 0 55 -50
0 -50 0 0 50 0 50 -55 0 -55 0 0 -160z"/>
<path d="M2470 2740 l0 -50 -50 0 -50 0 0 -55 0 -55 -55 0 -55 0 0 -55 0 -55
160 0 160 0 0 160 0 160 -55 0 -55 0 0 -50z"/>
<path d="M910 1935 l0 -55 -55 0 -56 0 3 -107 3 -108 53 -3 52 -3 0 -50 0 -49
55 0 55 0 0 -55 0 -55 55 0 55 0 0 -55 0 -55 80 0 80 0 0 55 0 55 55 0 55 0 0
55 0 55 55 0 55 0 0 50 0 50 50 0 50 0 0 110 0 110 -50 0 -50 0 0 55 0 55
-110 0 -110 0 0 -55 0 -55 -80 0 -80 0 0 55 0 55 -110 0 -110 0 0 -55z"/>
<path d="M1930 1935 l0 -55 -50 0 -50 0 0 -110 0 -110 50 0 50 0 0 -50 0 -50
55 0 55 0 0 -55 0 -55 55 0 55 0 0 -55 0 -55 80 0 80 0 0 55 0 55 55 0 55 0 0
55 0 55 55 0 55 0 0 49 0 50 53 3 52 3 3 108 3 107 -56 0 -55 0 0 55 0 55
-110 0 -110 0 0 -55 0 -55 -80 0 -80 0 0 55 0 55 -110 0 -110 0 0 -55z"/>
<path d="M1614 1336 c-3 -7 -4 -33 -2 -57 2 -36 7 -45 24 -47 19 -3 22 -11 26
-65 3 -34 3 -81 0 -104 l-5 -43 -103 0 -104 0 0 55 0 55 -55 0 -55 0 0 -55 0
-55 55 0 55 0 0 -55 0 -55 110 0 110 0 0 55 0 55 50 0 50 0 0 -55 0 -55 110 0
110 0 0 55 0 55 55 0 55 0 0 55 0 55 -55 0 -55 0 0 -55 0 -55 -104 0 -103 0
-5 43 c-3 23 -3 70 0 104 4 54 7 62 26 65 18 3 21 9 21 58 l0 55 -103 3 c-81
2 -103 0 -108 -12z"/>
<path d="M110 1290 l0 -50 183 0 c101 0 259 -3 350 -7 l167 -6 0 56 0 57 -350
0 -350 0 0 -50z"/>
<path d="M2630 1283 l0 -56 167 6 c91 4 249 7 350 7 l183 0 0 50 0 50 -350 0
-350 0 0 -57z"/>
<path d="M220 965 l0 -55 348 2 347 3 3 29 c2 15 1 39 -2 52 l-6 24 -345 0
-345 0 0 -55z"/>
<path d="M2524 996 c-3 -13 -4 -37 -2 -52 l3 -29 348 -3 347 -2 0 55 0 55
-345 0 -345 0 -6 -24z"/>
</g>
</svg>
